<svg width="88" height="90" viewBox="0 0 88 90" fill="none" xmlns="http://www.w3.org/2000/svg">
<rect x="15.0002" y="8" width="73" height="73" fill="#008BC1"/>
<circle cx="22.5579" cy="67.5192" r="3.59615" transform="rotate(-180 22.5579 67.5192)" fill="white"/>
<circle cx="22.5579" cy="29.5961" r="3.59615" transform="rotate(-180 22.5579 29.5961)" fill="white"/>
<circle cx="22.5579" cy="48.5577" r="3.59615" transform="rotate(-180 22.5579 48.5577)" fill="white"/>
<g opacity="0.8">
<circle cx="41.5194" cy="67.5192" r="3.59615" transform="rotate(-180 41.5194 67.5192)" fill="white"/>
<circle cx="41.5194" cy="29.5961" r="3.59615" transform="rotate(-180 41.5194 29.5961)" fill="white"/>
<circle cx="41.5194" cy="48.5577" r="3.59615" transform="rotate(-180 41.5194 48.5577)" fill="white"/>
</g>
<circle cx="60.4809" cy="67.5192" r="3.59615" transform="rotate(-180 60.4809 67.5192)" fill="white" fill-opacity="0.5"/>
<circle cx="60.4809" cy="29.5961" r="3.59615" transform="rotate(-180 60.4809 29.5961)" fill="white" fill-opacity="0.5"/>
<circle cx="60.4809" cy="48.5577" r="3.59615" transform="rotate(-180 60.4809 48.5577)" fill="white" fill-opacity="0.5"/>
<circle cx="79.4425" cy="67.5192" r="3.59615" transform="rotate(-180 79.4425 67.5192)" fill="white" fill-opacity="0.3"/>
<circle cx="79.4425" cy="29.5961" r="3.59615" transform="rotate(-180 79.4425 29.5961)" fill="white" fill-opacity="0.3"/>
<circle cx="79.4425" cy="48.5577" r="3.59615" transform="rotate(-180 79.4425 48.5577)" fill="white" fill-opacity="0.3"/>
<circle cx="3.59635" cy="67.5192" r="3.59615" transform="rotate(-180 3.59635 67.5192)" fill="white"/>
<circle cx="3.59636" cy="29.5961" r="3.59615" transform="rotate(-180 3.59636 29.5961)" fill="white"/>
<circle cx="3.59635" cy="48.5577" r="3.59615" transform="rotate(-180 3.59635 48.5577)" fill="white"/>
<rect x="32.4999" y="0.5" width="57" height="89" stroke="white"/>
</svg>
